<svg xmlns="http://www.w3.org/2000/svg" width="900" height="330" viewBox="0 0 900 330"><rect width="900" height="330" rx="32" fill="#ECFBF8"/><rect x="56" y="50" width="310" height="230" rx="24" fill="#ffffff" stroke="#d8e4ef"/><rect x="94" y="86" width="234" height="136" rx="16" fill="#f0f5fa"/><circle cx="211" cy="155" r="38" fill="#dceaf6"/><circle cx="211" cy="155" r="16" fill="#2F80ED"/><rect x="142" y="239" width="138" height="14" rx="7" fill="#dbe5ef"/><path d="M450 92h255a22 22 0 0 1 22 22v110a22 22 0 0 1-22 22H450a22 22 0 0 1-22-22V114a22 22 0 0 1 22-22z" fill="#fff" stroke="#d8e4ef"/><circle cx="505" cy="148" r="18" fill="#00A6A6"/><circle cx="571" cy="148" r="18" fill="#2F80ED"/><circle cx="637" cy="148" r="18" fill="#F59E0B"/><rect x="480" y="188" width="178" height="16" rx="8" fill="#e7eef6"/><text x="450" y="245" font-family="Arial, sans-serif" font-size="21" font-weight="700" fill="#122033">OPTIONAL IMAGE SIGNAL REVIEW</text></svg>
